<svg xmlns="http://www.w3.org/2000/svg" id="svg8" width="700mm" height="700mm" version="1.1" viewBox="0 0 700 700">
  <g transform="translate(350,350)" fill="#999">
    <rect x="-30" y="-30" width="60" height="60"/><g transform="rotate(90)">
      <rect id="Road-0-7" x="-350" y="-30" width="40" height="30"/>
      <rect id="Road-0-6" x="-310" y="-30" width="40" height="30"/>
      <rect id="Road-0-5" x="-270" y="-30" width="40" height="30"/>
      <rect id="Road-0-4" x="-230" y="-30" width="40" height="30"/>
      <rect id="Road-0-3" x="-190" y="-30" width="40" height="30"/>
      <rect id="Road-0-2" x="-150" y="-30" width="40" height="30"/>
      <rect id="Road-0-1" x="-110" y="-30" width="40" height="30"/>
      <rect id="Road-0-0" x="-70" y="-30" width="40" height="30"/>
      <rect x="-350" width="320" height="30"/>
      <g fill="none" stroke="#000" stroke-width="1.5">
        <path d="m-350-0h320"/>
        <path d="m-30-0v-30"/>
      </g>
    </g>
    <g>
      <rect id="Road-1-7" x="-350" y="-30" width="40" height="30"/>
      <rect id="Road-1-6" x="-310" y="-30" width="40" height="30"/>
      <rect id="Road-1-5" x="-270" y="-30" width="40" height="30"/>
      <rect id="Road-1-4" x="-230" y="-30" width="40" height="30"/>
      <rect id="Road-1-3" x="-190" y="-30" width="40" height="30"/>
      <rect id="Road-1-2" x="-150" y="-30" width="40" height="30"/>
      <rect id="Road-1-1" x="-110" y="-30" width="40" height="30"/>
      <rect id="Road-1-0" x="-70" y="-30" width="40" height="30"/>
      <rect id="rect4581" x="-350" width="320" height="30"/>
      <g fill="none" stroke="#000" stroke-width="1.5">
        <path d="m-350-0h320"/>
        <path d="m-30-0v-30"/>
      </g>
    </g>
    <g transform="rotate(-90)">
      <rect id="Road-2-7" x="-350" y="-30" width="40" height="30"/>
      <rect id="Road-2-6" x="-310" y="-30" width="40" height="30"/>
      <rect id="Road-2-5" x="-270" y="-30" width="40" height="30"/>
      <rect id="Road-2-4" x="-230" y="-30" width="40" height="30"/>
      <rect id="Road-2-3" x="-190" y="-30" width="40" height="30"/>
      <rect id="Road-2-2" x="-150" y="-30" width="40" height="30"/>
      <rect id="Road-2-1" x="-110" y="-30" width="40" height="30"/>
      <rect id="Road-2-0" x="-70" y="-30" width="40" height="30"/>
      <rect x="-350" width="320" height="30"/>
      <g fill="none" stroke="#000" stroke-width="1.5">
        <path d="m-350-0h320"/>
        <path d="m-30-0v-30"/>
      </g>
    </g>
    <g transform="rotate(180)">
      <rect id="Road-3-7" x="-350" y="-30" width="40" height="30"/>
      <rect id="Road-3-6" x="-310" y="-30" width="40" height="30"/>
      <rect id="Road-3-5" x="-270" y="-30" width="40" height="30"/>
      <rect id="Road-3-4" x="-230" y="-30" width="40" height="30"/>
      <rect id="Road-3-3" x="-190" y="-30" width="40" height="30"/>
      <rect id="Road-3-2" x="-150" y="-30" width="40" height="30"/>
      <rect id="Road-3-1" x="-110" y="-30" width="40" height="30"/>
      <rect id="Road-3-0" x="-70" y="-30" width="40" height="30"/>
      <rect x="-350" width="320" height="30"/>
      <g fill="none" stroke="#000" stroke-width="1.5">
        <path d="m-350-0h320"/>
        <path d="m-30-0v-30"/>
      </g>
    </g>
  </g>
</svg>